<!-- Generator: Adobe Illustrator 19.2.0, SVG Export Plug-In  -->
<svg version="1.1"
	 xmlns="http://www.w3.org/2000/svg" xmlns:xlink="http://www.w3.org/1999/xlink" xmlns:a="http://ns.adobe.com/AdobeSVGViewerExtensions/3.0/"
	 x="0px" y="0px" width="350px" height="251.529px" viewBox="0 0 350 251.529" style="enable-background:new 0 0 350 251.529;"
	 xml:space="preserve">
<style type="text/css">
	.st0{fill:#28AAE1;}
	.st1{fill:#666666;}
	.st2{font-family:'ExpertSans-ExtraLight';}
	.st3{font-size:80.0536px;}
	.st4{letter-spacing:-2;}
	.st5{letter-spacing:-1;}
	.st6{font-size:61.9701px;}
</style>
<defs>
</defs>
<g id="XMLID_1_">
	<path class="st0" d="M10.984,68.288H6.802V11.766h4.183V68.288z"/>
	<path class="st0" d="M52.066,68.288V42.842c0-4.587-0.75-7.883-2.248-9.89c-1.499-2.007-3.929-3.01-7.29-3.01
		c-3.597,0-6.938,1.218-10.026,3.654c-3.088,2.438-4.632,5.297-4.632,8.58v26.111h-3.831V27.714l3.831-0.977v7.388
		c2.084-2.449,4.391-4.293,6.919-5.531c2.527-1.237,5.289-1.856,8.286-1.856c4.273,0,7.479,1.211,9.616,3.635
		s3.205,6.046,3.205,10.866v27.05H52.066z"/>
	<path class="st0" d="M85.408,67.976c-2.476,0.859-4.873,1.29-7.192,1.29c-5.446,0-8.169-3.362-8.169-10.085V30.997h-7.779
		l1.134-3.283h6.646V17.043l3.83-0.938v11.609H85.33l-1.134,3.283H73.877v27.988c0,2.345,0.353,4.098,1.056,5.257
		c0.703,1.16,2.137,1.739,4.3,1.739c1.407,0,3.14-0.403,5.199-1.211L85.408,67.976z"/>
	<path class="st0" d="M108.002,69.266c-5.707,0-10.138-1.838-13.29-5.512c-3.153-3.675-4.729-8.573-4.729-14.697
		c0-6.593,1.642-11.961,4.925-16.104s7.544-6.215,12.782-6.215c4.534,0,8.071,1.55,10.612,4.651s3.812,7.258,3.812,12.469v3.87
		H94.087c-0.053,0.469-0.079,1.082-0.079,1.837c0,5.212,1.231,9.238,3.694,12.078c2.463,2.841,5.974,4.261,10.534,4.261
		c3.7,0,7.361-1.211,10.984-3.635l1.759,2.971C117.175,67.924,112.849,69.266,108.002,69.266z M94.321,44.444h24v-0.587
		c0-9.172-3.648-13.759-10.944-13.759c-3.414,0-6.301,1.349-8.658,4.046C96.359,36.841,94.894,40.275,94.321,44.444z"/>
	<path class="st0" d="M151.312,26.972l-0.625,3.283c-0.704-0.156-1.343-0.234-1.915-0.234c-3.362,0-6.301,1.7-8.814,5.101
		c-2.516,3.401-3.772,7.355-3.772,11.863v21.304h-3.831V27.714l3.831-0.977v9.459c3.022-6.306,7.374-9.459,13.056-9.459
		C149.526,26.737,150.218,26.815,151.312,26.972z"/>
	<path class="st0" d="M181.84,62.112c-4.665,4.769-9.524,7.153-14.58,7.153c-3.466,0-6.241-0.997-8.325-2.99
		c-2.086-1.994-3.127-4.633-3.127-7.916c0-7.01,5.042-11.518,15.127-13.524l10.827-2.15v-2.188c0-3.648-0.762-6.307-2.286-7.975
		c-1.524-1.667-4.099-2.501-7.721-2.501c-3.752,0-7.675,1.551-11.766,4.651l-1.915-2.893c4.481-3.361,9.225-5.042,14.229-5.042
		c8.859,0,13.29,4.456,13.29,13.368v19.31c0,3.205,0.664,6.007,1.993,8.404l-3.752,0.938
		C182.687,66.308,182.022,64.093,181.84,62.112z M181.762,45.813l-9.771,1.915c-8.053,1.59-12.079,5.159-12.079,10.71
		c0,5.03,2.632,7.544,7.896,7.544c4.065,0,8.717-2.566,13.954-7.7V45.813z"/>
	<path class="st0" d="M213.776,69.266c-5.316,0-9.571-1.812-12.763-5.434c-3.192-3.622-4.788-8.482-4.788-14.58
		c0-7.349,1.681-12.938,5.042-16.77c3.361-3.83,8.092-5.745,14.189-5.745c3.987,0,7.7,0.886,11.141,2.657l-1.524,3.284
		c-3.311-1.721-6.464-2.58-9.46-2.58c-5.134,0-8.978,1.558-11.531,4.671c-2.554,3.114-3.831,7.772-3.831,13.975
		c0,5.732,1.166,10.025,3.499,12.879c2.332,2.854,5.83,4.28,10.495,4.28c3.753,0,7.466-1.211,11.141-3.635l1.759,2.971
		C223.183,67.924,218.727,69.266,213.776,69.266z"/>
	<path class="st0" d="M254.037,67.976c-2.476,0.859-4.873,1.29-7.192,1.29c-5.446,0-8.169-3.362-8.169-10.085V30.997h-7.779
		l1.134-3.283h6.646V17.043l3.83-0.938v11.609h11.453l-1.134,3.283h-10.319v27.988c0,2.345,0.353,4.098,1.056,5.257
		c0.703,1.16,2.137,1.739,4.3,1.739c1.407,0,3.14-0.403,5.199-1.211L254.037,67.976z"/>
	<path class="st0" d="M264.787,20.014c-0.704,0-1.336-0.28-1.896-0.841c-0.561-0.56-0.84-1.191-0.84-1.896
		c0-0.729,0.273-1.361,0.82-1.896c0.548-0.534,1.186-0.802,1.916-0.802c0.729,0,1.368,0.268,1.915,0.802s0.82,1.166,0.82,1.896
		c0,0.704-0.273,1.336-0.82,1.896C266.155,19.733,265.516,20.014,264.787,20.014z M266.702,68.288h-3.831V27.714l3.831-0.977V68.288
		z"/>
	<path class="st0" d="M309.855,27.714l-15.127,40.418l-4.495,1.134l-15.284-41.552h4.104l13.368,37.135l13.604-37.135H309.855z"/>
	<path class="st0" d="M331.901,69.266c-5.707,0-10.138-1.838-13.29-5.512c-3.153-3.675-4.729-8.573-4.729-14.697
		c0-6.593,1.642-11.961,4.925-16.104s7.544-6.215,12.782-6.215c4.534,0,8.071,1.55,10.612,4.651s3.812,7.258,3.812,12.469v3.87
		h-28.026c-0.053,0.469-0.079,1.082-0.079,1.837c0,5.212,1.231,9.238,3.694,12.078c2.463,2.841,5.974,4.261,10.534,4.261
		c3.7,0,7.361-1.211,10.984-3.635l1.759,2.971C341.074,67.924,336.748,69.266,331.901,69.266z M318.221,44.444h24v-0.587
		c0-9.172-3.648-13.759-10.944-13.759c-3.414,0-6.301,1.349-8.658,4.046C320.259,36.841,318.793,40.275,318.221,44.444z"/>
	<path class="st0" d="M29.551,141.158c-7.817,0-13.922-2.495-18.313-7.485c-4.392-4.99-6.587-11.786-6.587-20.385
		c0-9.955,2.326-17.538,6.978-22.75s11.29-7.817,19.916-7.817c5.367,0,10.085,1.055,14.149,3.166l-1.407,3.361
		c-4.013-2.006-8.469-3.01-13.368-3.01c-7.088,0-12.521,2.229-16.3,6.685s-5.668,10.919-5.668,19.388
		c0,8.209,1.824,14.477,5.473,18.802c3.648,4.326,8.873,6.488,15.675,6.488c5.106,0,10.02-1.511,14.736-4.534l1.759,3.127
		C41.564,139.503,35.884,141.158,29.551,141.158z"/>
	<path class="st0" d="M84.236,140.181v-25.446c0-4.587-0.75-7.883-2.248-9.89c-1.499-2.007-3.929-3.01-7.29-3.01
		c-2.736,0-5.414,0.775-8.033,2.325c-2.618,1.551-4.827,3.577-6.625,6.078v29.942h-3.831V80.297l3.831-1.056v26.776
		c2.084-2.449,4.391-4.293,6.919-5.531c2.527-1.237,5.289-1.856,8.286-1.856c4.273,0,7.479,1.211,9.616,3.635
		s3.205,6.046,3.205,10.866v27.05H84.236z"/>
	<path class="st0" d="M124.028,134.005c-4.665,4.769-9.524,7.153-14.58,7.153c-3.466,0-6.241-0.997-8.325-2.99
		c-2.086-1.994-3.127-4.633-3.127-7.916c0-7.01,5.042-11.518,15.127-13.524l10.827-2.15v-2.188c0-3.648-0.762-6.307-2.286-7.975
		c-1.524-1.667-4.099-2.501-7.721-2.501c-3.752,0-7.675,1.551-11.766,4.651l-1.915-2.893c4.481-3.361,9.225-5.042,14.229-5.042
		c8.859,0,13.29,4.456,13.29,13.368v19.31c0,3.205,0.664,6.007,1.993,8.404l-3.752,0.938
		C124.875,138.2,124.211,135.985,124.028,134.005z M123.95,117.705l-9.771,1.915c-8.053,1.59-12.079,5.159-12.079,10.71
		c0,5.03,2.632,7.544,7.896,7.544c4.065,0,8.717-2.566,13.954-7.7V117.705z"/>
	<path class="st0" d="M159.638,98.864l-0.625,3.283c-0.704-0.156-1.343-0.234-1.915-0.234c-3.362,0-6.301,1.7-8.814,5.101
		c-2.516,3.401-3.772,7.355-3.772,11.863v21.304h-3.831V99.606l3.831-0.977v9.459c3.022-6.306,7.374-9.459,13.056-9.459
		C157.853,98.63,158.544,98.708,159.638,98.864z"/>
	<path class="st0" d="M186.961,139.868c-2.476,0.859-4.873,1.29-7.192,1.29c-5.446,0-8.169-3.362-8.169-10.085V102.89h-7.779
		l1.134-3.283h6.646V88.936l3.83-0.938v11.609h11.453l-1.134,3.283H175.43v27.988c0,2.345,0.353,4.098,1.056,5.257
		c0.703,1.16,2.137,1.739,4.3,1.739c1.407,0,3.14-0.403,5.199-1.211L186.961,139.868z"/>
	<path class="st1" d="M8.503,217.246v18.791H5.265v-43.814c2.925-0.202,6.273-0.303,10.046-0.303c5.467,0,9.572,0.903,12.315,2.708
		c2.743,1.806,4.115,4.514,4.115,8.124c0,4.58-2.042,8.115-6.127,10.606S15.825,217.146,8.503,217.246z M8.503,194.703v19.941
		c6.253-0.102,11.15-1.115,14.69-3.041c3.54-1.927,5.311-4.686,5.311-8.276c0-3.006-0.994-5.234-2.98-6.688
		c-1.987-1.452-5.392-2.178-10.213-2.178C13.294,194.462,11.024,194.542,8.503,194.703z"/>
	<path class="st1" d="M51.682,204.054l-0.483,2.542c-0.545-0.121-1.04-0.182-1.483-0.182c-2.602,0-4.877,1.315-6.823,3.948
		s-2.92,5.694-2.92,9.184v16.491h-2.965v-31.408l2.965-0.757v7.322c2.34-4.881,5.709-7.322,10.106-7.322
		C50.3,203.872,50.835,203.933,51.682,204.054z"/>
	<path class="st1" d="M67.145,236.794c-4.075,0-7.308-1.453-9.698-4.357c-2.391-2.905-3.586-6.909-3.586-12.013
		c0-5.124,1.2-9.163,3.602-12.119c2.4-2.955,5.628-4.433,9.683-4.433s7.287,1.478,9.698,4.433c2.41,2.956,3.615,6.995,3.615,12.119
		c0,5.104-1.2,9.107-3.601,12.013C74.457,235.341,71.219,236.794,67.145,236.794z M67.145,206.475c-3.288,0-5.805,1.21-7.55,3.631
		s-2.617,5.86-2.617,10.318c0,4.599,0.848,8.044,2.542,10.333c1.694,2.29,4.236,3.435,7.625,3.435c3.308,0,5.84-1.19,7.595-3.57
		s2.633-5.779,2.633-10.197c0-4.438-0.878-7.872-2.633-10.304C72.984,207.689,70.452,206.475,67.145,206.475z"/>
	<path class="st1" d="M101.912,235.795c-1.917,0.666-3.772,0.999-5.567,0.999c-4.217,0-6.324-2.603-6.324-7.808V207.17h-6.021
		l0.877-2.541h5.145v-8.261l2.965-0.727v8.987h8.866l-0.878,2.541h-7.988v21.666c0,1.815,0.272,3.172,0.817,4.069
		s1.653,1.347,3.328,1.347c1.09,0,2.431-0.313,4.024-0.938L101.912,235.795z"/>
	<path class="st1" d="M118.735,236.794c-4.075,0-7.308-1.453-9.698-4.357c-2.391-2.905-3.586-6.909-3.586-12.013
		c0-5.124,1.2-9.163,3.602-12.119c2.4-2.955,5.628-4.433,9.683-4.433s7.287,1.478,9.698,4.433c2.41,2.956,3.615,6.995,3.615,12.119
		c0,5.104-1.2,9.107-3.601,12.013C126.048,235.341,122.81,236.794,118.735,236.794z M118.735,206.475
		c-3.288,0-5.805,1.21-7.55,3.631s-2.617,5.86-2.617,10.318c0,4.599,0.848,8.044,2.542,10.333c1.694,2.29,4.236,3.435,7.625,3.435
		c3.308,0,5.84-1.19,7.595-3.57s2.633-5.779,2.633-10.197c0-4.438-0.878-7.872-2.633-10.304
		C124.575,207.689,122.043,206.475,118.735,206.475z"/>
	<path class="st1" d="M153.503,235.795c-1.917,0.666-3.772,0.999-5.567,0.999c-4.217,0-6.324-2.603-6.324-7.808V207.17h-6.021
		l0.877-2.541h5.145v-8.261l2.965-0.727v8.987h8.866l-0.878,2.541h-7.988v21.666c0,1.815,0.272,3.172,0.817,4.069
		s1.653,1.347,3.328,1.347c1.09,0,2.431-0.313,4.024-0.938L153.503,235.795z"/>
	<path class="st1" d="M183.52,204.629l-12.104,30.47c-2.945,7.424-6.949,12.235-12.013,14.434l-1.543-2.088
		c2.663-1.291,4.791-2.95,6.385-4.978c1.593-2.027,3.096-4.745,4.508-8.154l-11.71-29.684h3.238l10.016,25.962l10.228-25.962H183.52
		z"/>
	<path class="st1" d="M193.173,208.472c3.328-3.066,6.818-4.6,10.47-4.6c3.953,0,7.05,1.412,9.289,4.236s3.359,6.768,3.359,11.831
		c0,4.902-1.393,8.937-4.176,12.104c-2.784,3.167-6.264,4.751-10.439,4.751c-3.49,0-6.324-1.14-8.503-3.42v15.493l-2.966,0.816
		v-38.55c0-2.602-0.373-4.771-1.119-6.505l2.966-0.757C192.8,205.203,193.173,206.736,193.173,208.472z M193.173,211.679v14.252
		c0,2.603,0.771,4.63,2.314,6.082c1.544,1.452,3.605,2.179,6.188,2.179c3.368,0,6.132-1.24,8.291-3.722
		c2.158-2.481,3.237-5.891,3.237-10.228c0-4.438-0.862-7.842-2.587-10.213c-1.725-2.37-4.191-3.555-7.398-3.555
		C199.91,206.475,196.562,208.209,193.173,211.679z"/>
	<path class="st1" d="M236.443,236.794c-4.418,0-7.848-1.423-10.288-4.267c-2.441-2.845-3.662-6.637-3.662-11.378
		c0-5.103,1.271-9.259,3.813-12.466c2.541-3.208,5.84-4.812,9.895-4.812c3.51,0,6.248,1.2,8.215,3.601
		c1.967,2.401,2.95,5.618,2.95,9.652v2.996h-21.695c-0.041,0.363-0.061,0.837-0.061,1.422c0,4.035,0.953,7.151,2.859,9.351
		c1.906,2.198,4.624,3.298,8.154,3.298c2.864,0,5.699-0.938,8.503-2.814l1.362,2.3C243.543,235.755,240.195,236.794,236.443,236.794
		z M225.853,217.579h18.579v-0.454c0-7.1-2.825-10.65-8.473-10.65c-2.644,0-4.877,1.044-6.702,3.132
		C227.431,211.694,226.296,214.352,225.853,217.579z"/>
</g>
</svg>