<!-- Generator: Adobe Illustrator 19.2.0, SVG Export Plug-In  -->
<svg version="1.1"
	 xmlns="http://www.w3.org/2000/svg" xmlns:xlink="http://www.w3.org/1999/xlink" xmlns:a="http://ns.adobe.com/AdobeSVGViewerExtensions/3.0/"
	 x="0px" y="0px" width="133.192px" height="22.677px" viewBox="0 0 133.192 22.677"
	 style="enable-background:new 0 0 133.192 22.677;" xml:space="preserve">
<style type="text/css">
	.st0{fill:#2AA7DF;}
</style>
<defs>
</defs>
<g id="XMLID_1_">
	<path id="XMLID_3_" class="st0" d="M32.806,19.2H27c0.736-0.651,0.925-3.169,1.25-7.588l0.069-1.028
		c0.171-2.518,0.308-4.453,0.274-5.806c-0.017-1.165-0.154-1.918-0.48-2.175h6.491c1.542,0,4.642,0.086,4.642,3.306
		c0,2.141-2.004,3.477-3.819,3.957c2.586,0.257,4.505,1.507,4.505,4.162C39.949,16.922,37.242,19.2,32.806,19.2 M32.549,11.184
		h-1.182l-0.171,2.449c-0.086,1.079-0.137,1.97-0.154,3.049c0,0.154,0.48,0.48,1.593,0.48c2.329,0,3.854-1.165,3.854-3.066
		C36.489,11.955,34.742,11.184,32.549,11.184 M33.08,4.607c-0.325,0-0.754,0-1.165,0.034c-0.171,1.165-0.274,2.278-0.36,3.511
		c0,0-0.069,1.062-0.069,1.011h0.428c2.107,0,4.042-0.736,4.042-2.672C35.975,5.378,35.05,4.607,33.08,4.607 M53.548,19.354
		c-1.422,0-1.524-0.034-2.672-3.957l-0.411-1.439c-0.685,0.325-1.918,0.48-3.871,0.48h-1.97l-0.343,0.736
		c-0.343,0.771-1.182,2.364-1.165,3.289c0,0.223,0.017,0.428,0.103,0.754h-3.974c1.148-1.148,2.586-3.785,4.573-8.067l1.165-2.466
		c1.045-2.244,2.175-4.779,2.175-5.138c0-0.325-0.086-0.617-0.223-0.925h3.614c0,0,0.942,3.597,1.781,6.577l0.702,2.621
		c1.233,4.402,2.004,6.56,3.032,7.399C55.158,19.303,53.993,19.354,53.548,19.354 M48.324,6.491l-2.689,5.789h4.368L48.324,6.491
		 M69.254,19.902c-1.233,0-1.524-0.188-1.935-0.754l-4.642-6.44c-0.36-0.497-0.651-0.908-1.216-0.908h-0.103l-0.086,1.25
		c-0.103,1.696-0.171,3.049-0.171,4.059c0.017,1.113,0.154,1.798,0.445,2.09h-4.487c0.651-0.582,0.874-2.518,1.25-7.588l0.069-1.045
		c0.171-2.501,0.308-4.436,0.274-5.789c-0.017-1.182-0.154-1.918-0.48-2.175h6.132c2.004,0,4.744,0.343,4.744,3.597
		c0,2.672-1.781,4.128-3.991,4.813c0.223,0.188,0.599,0.685,0.839,0.993l3.374,4.47c2.107,2.775,2.278,2.895,3.032,3.289
		C71.344,19.868,70.076,19.902,69.254,19.902 M63.26,4.624c-0.411,0-0.908,0-1.285,0.051c-0.12,0.702-0.24,1.935-0.394,3.905
		l-0.086,1.165c0.223,0.034,0.497,0.069,0.754,0.069c2.055,0,3.477-1.25,3.477-3.134C65.726,5.378,64.835,4.624,63.26,4.624
		 M78.092,19.526c-4.282,0-6.748-3.528-6.748-7.485c0-5.498,2.98-9.763,8.684-9.763c1.781,0,2.621,0.325,4.059,0.325l-0.428,4.231
		c-0.822-1.49-2.141-2.501-3.939-2.501c-3.545,0-4.984,3.819-4.984,7.108c0,3.563,2.004,5.532,4.659,5.532
		c1.439,0,2.706-0.394,4.83-1.867C83.385,17.864,81.381,19.526,78.092,19.526 M107.346,19.354c-1.422,0-1.524-0.034-2.672-3.957
		l-0.411-1.439c-0.685,0.325-1.918,0.48-3.871,0.48h-1.97l-0.343,0.736c-0.497,1.096-1.165,2.381-1.165,3.289
		c0,0.223,0.017,0.445,0.103,0.754H85.286c0.668-0.754,0.874-3.186,1.199-7.588l0.069-1.045c0.171-2.518,0.308-4.453,0.274-5.806
		c-0.017-1.113-0.12-1.833-0.428-2.141h4.539c-0.651,0.497-0.891,3.152-1.182,7.57l-0.086,1.045
		c-0.103,1.627-0.325,3.306-0.325,4.95c0,0.754,0.308,0.925,1.079,0.925c2.758,0,3.443-0.069,4.693-0.908
		c0.771-1.422,1.661-3.203,2.518-5.053L98.8,8.701c1.096-2.329,2.175-4.693,2.175-5.138c0-0.325-0.086-0.617-0.206-0.925h3.614
		c0,0,1.456,5.412,1.781,6.577l0.702,2.621c1.233,4.402,2.004,6.56,3.032,7.399C109.008,19.303,107.792,19.354,107.346,19.354
		 M102.122,6.491l-2.672,5.789h4.333L102.122,6.491 M117.743,10.26c-0.394,0.651-0.874,1.524-1.182,2.175
		c-0.257,1.216-0.394,2.86-0.394,4.659c0,0.754,0.12,1.764,0.48,2.107h-4.487c0.788-0.754,1.113-5.378,1.079-6.834
		c-0.599-2.09-1.422-4.076-2.672-6.509c-0.788-1.524-1.713-2.963-2.295-3.237c1.011-0.086,2.295-0.154,2.929-0.154
		c1.113,0,1.422,0.154,2.107,1.661c1.079,2.432,1.867,4.248,2.347,5.601c1.148-1.781,1.935-3.014,2.963-4.693
		c0.257-0.411,0.48-0.925,0.48-1.422c0-0.394-0.069-0.822-0.24-1.011h4.453C122.419,2.792,118.548,8.889,117.743,10.26
		 M132.764,6.543c-0.685-1.25-2.175-2.192-3.785-2.192c-1.422,0-2.672,0.582-2.672,2.09c0,1.267,1.576,2.124,3.203,3.186
		c1.781,1.113,3.631,2.501,3.631,4.881c0,3.117-3.032,5.036-6.543,5.036c-1.439,0-2.946-0.274-4.642-0.925l0.274-4.145
		c0.822,1.661,2.347,2.963,4.607,2.963c1.747,0,3.032-0.839,3.032-2.295c0-1.25-1.045-2.021-2.346-2.792
		c-2.706-1.627-4.419-2.946-4.419-5.31c0-3.545,2.963-4.727,6.046-4.727c1.781,0,2.895,0.325,4.042,0.325L132.764,6.543z"/>
	<path id="XMLID_2_" class="st0" d="M21.091,7.742L21.091,7.742c-0.103-1.148-0.411-2.209-0.771-2.929
		c-0.257-0.514-0.599-1.079-1.148-1.507c-0.291-0.223-0.634-0.411-1.028-0.531c-0.274-0.086-0.599-0.137-0.976-0.137
		c-0.582,0-1.25,0.188-1.713,0.719c-0.48,0.548-0.36,1.524,0.394,1.781l0,0l0,0c-0.103,0.206-0.445,0.617-1.524,0.599
		c-0.548,0-1.011-0.154-1.541-0.839c-0.36-0.462-0.462-1.387-0.48-2.278c-0.017-0.548-0.086-1.011-0.223-1.439
		c-0.103-0.325-0.257-0.531-0.48-0.685c-0.171-0.137-0.325-0.24-0.668-0.343C10.557,0.034,10.078,0,9.804,0
		C9.256,0,9.102,0.069,8.879,0.325l0,0l0,0C8.434,0.308,8.108,0.343,7.903,0.394C7.44,0.497,7.149,0.668,6.961,0.822
		c-0.137,0.12-0.36,0.325-0.428,0.617C6.515,1.473,6.498,1.541,6.498,1.593s0,0.137,0,0.188c0,0.051,0.017,0.103,0.034,0.154
		c0.017,0.051,0.034,0.086,0.069,0.12l0,0l0,0c0.428-0.462,1.713-0.223,2.072,0.291c0.325,0.462,0.274,0.925,0.223,1.404
		C8.793,4.47,8.485,5.567,7.2,5.755C6.635,5.841,5.693,5.841,5.282,5.19l0,0l0,0C6.07,4.916,6.156,3.922,5.676,3.408
		C4.905,2.552,3.723,2.621,3.004,2.826c-1.13,0.325-1.764,1.25-2.175,2.055C0.401,5.721,0.144,6.783,0.058,7.793l0,0
		c-0.103,1.028-0.051,1.918,0.017,2.792c0.12,1.336,0.343,2.158,0.668,3.049c0.325,0.856,0.719,1.713,1.199,2.484
		c0.308,0.497,0.377,0.617,0.445,0.617l0,0l0,0c0.051,0,0.051-0.034,0.394-0.377c0.188-0.188,0.685-0.839,0.839-1.062
		c0.154-0.206,0.411-0.634,0.565-0.925c0.12,0.103,0.188,0.274,0.188,0.445c0,0.188-0.051,0.445-0.171,0.822
		c-0.12,0.428-0.343,0.976-0.634,1.49c-0.24,0.445-0.462,0.754-0.223,0.925l0,0c0.171,0.137,0.599-0.154,0.754-0.274
		c0.154-0.12,0.754-0.599,1.473-1.593c0.514-0.719,0.925-1.404,1.319-2.261c0.034,0.017,0.086,0.051,0.103,0.103
		c0.051,0.103,0.086,0.257,0.051,0.445c-0.051,0.411-0.274,1.045-0.582,1.781c-0.36,0.839-0.993,1.798-1.661,2.655
		c-0.086,0.103-0.223,0.24-0.223,0.308s0.137,0.171,0.565,0.514c0.668,0.548,1.37,1.045,2.347,1.593
		c0.805,0.445,2.175,1.13,3.066,1.353l0,0l0,0c0.874-0.223,2.261-0.908,3.066-1.353c0.976-0.548,1.679-1.045,2.347-1.593
		c0.411-0.343,0.565-0.445,0.565-0.514l0,0l0,0c0-0.086-0.137-0.206-0.223-0.308c-0.668-0.874-1.302-1.833-1.661-2.655
		c-0.308-0.736-0.531-1.37-0.582-1.781c-0.017-0.188,0-0.343,0.051-0.445c0.017-0.034,0.069-0.086,0.103-0.103
		c0.394,0.839,0.805,1.542,1.319,2.261c0.719,1.011,1.302,1.473,1.473,1.593c0.171,0.12,0.582,0.411,0.754,0.274
		c0.24-0.171,0.017-0.48-0.223-0.925c-0.291-0.531-0.514-1.079-0.634-1.49c-0.103-0.394-0.171-0.634-0.171-0.822
		c0-0.171,0.051-0.343,0.171-0.445c0.137,0.308,0.411,0.719,0.565,0.925c0.154,0.206,0.651,0.874,0.839,1.062
		c0.343,0.343,0.343,0.377,0.394,0.377l0,0l0,0c0.069,0,0.137-0.12,0.445-0.617c0.48-0.771,0.874-1.644,1.199-2.484
		c0.343-0.891,0.565-1.713,0.668-3.049C21.16,9.66,21.194,8.769,21.091,7.742"/>
</g>
</svg>