<!-- Generator: Adobe Illustrator 19.2.0, SVG Export Plug-In  -->
<svg version="1.1"
	 xmlns="http://www.w3.org/2000/svg" xmlns:xlink="http://www.w3.org/1999/xlink" xmlns:a="http://ns.adobe.com/AdobeSVGViewerExtensions/3.0/"
	 x="0px" y="0px" width="107.213px" height="22.677px" viewBox="0 0 107.213 22.677"
	 style="enable-background:new 0 0 107.213 22.677;" xml:space="preserve">
<style type="text/css">
	.st0{fill:#2DA9E1;}
	.st1{fill:#676868;}
</style>
<defs>
</defs>
<g id="XMLID_1_">
	<path id="XMLID_34_" class="st0" d="M21.216,11.345l6.122-8.835c0.256-0.329,0.364-0.756,0.297-1.171
		c-0.063-0.389-0.274-0.736-0.582-0.959c-0.629-0.514-1.543-0.423-2.098,0.298l-5.553,8.047l-5.528-8.006
		c-0.425-0.706-1.467-0.872-2.124-0.339c-0.298,0.217-0.502,0.554-0.564,0.931c-0.068,0.422,0.044,0.859,0.281,1.164l6.121,8.87
		l-4.011,5.813c-1.088,1.376-2.907,2.455-4.729,2.469c-3.241-0.027-5.877-2.838-5.877-6.268V1.51c0-0.832-0.674-1.51-1.5-1.51
		C0.66,0,0,0.677,0,1.51v11.849c0,5.138,3.967,9.318,8.844,9.318c2.733,0,5.174-1.303,6.806-3.341l3.753-5.405l5.549,8.014
		c0.291,0.431,0.736,0.678,1.223,0.678c0.343,0,0.597-0.131,0.879-0.314c0.322-0.248,0.538-0.619,0.589-1.02
		c0.052-0.397-0.057-0.792-0.278-1.077L21.216,11.345z"/>
	<g id="XMLID_2_">
		<path id="XMLID_31_" class="st1" d="M38.378,7.938c0-0.732-0.373-1.192-0.819-1.522c-0.445-0.316-0.976-0.474-1.163-0.502
			c-0.043-0.014-0.058-0.029-0.072-0.029h-2.441v3.977c0,0.187-0.158,0.345-0.359,0.345c-0.186,0-0.344-0.158-0.344-0.345V0.501
			c0-0.172,0.144-0.33,0.316-0.345h0.028h0.043h2.8c1.579,0,2.857,1.278,2.857,2.872c0,1.149-0.675,2.139-1.651,2.599
			c0.043,0.029,0.086,0.043,0.144,0.072c0.661,0.373,1.35,1.105,1.35,2.24c0,0.589,0.058,0.948,0.129,1.163
			c0.058,0.172,0.129,0.23,0.144,0.244c0.158-0.014,0.33,0.072,0.388,0.23c0.043,0.187-0.043,0.388-0.23,0.459
			c-0.014,0-0.086,0.014-0.172,0.014h-0.028c-0.187,0-0.488-0.144-0.646-0.459C38.478,9.259,38.378,8.786,38.378,7.938z
			 M36.368,0.86h-2.484v4.336h2.412h0.129c1.163-0.029,2.111-0.991,2.111-2.168C38.536,1.822,37.56,0.86,36.368,0.86z"/>
		<path id="XMLID_29_" class="st1" d="M42.114,0.501c0-0.187,0.158-0.345,0.344-0.345c0.201,0,0.359,0.158,0.359,0.345v9.362
			c0,0.187-0.158,0.345-0.359,0.345c-0.186,0-0.344-0.158-0.344-0.345V0.501z"/>
		<path id="XMLID_27_" class="st1" d="M45.368,8.326c0.115-0.144,0.316-0.158,0.445-0.043c0.747,0.603,1.996,1.307,3.303,1.292
			c0.876,0,1.665-0.258,2.211-0.66c0.56-0.402,0.862-0.933,0.862-1.493c0-0.574-0.273-1.005-0.819-1.378
			c-0.545-0.359-1.35-0.632-2.326-0.818h-0.029c-0.933-0.172-1.751-0.431-2.369-0.847c-0.617-0.402-1.034-1.005-1.034-1.752
			c0-0.761,0.416-1.421,1.048-1.881s1.479-0.732,2.426-0.732c1.321,0,2.312,0.646,3.101,1.163c0.144,0.101,0.186,0.287,0.086,0.445
			c-0.086,0.144-0.287,0.187-0.431,0.086c-0.79-0.517-1.651-1.062-2.757-1.062c-0.819,0-1.551,0.244-2.053,0.603
			c-0.502,0.373-0.789,0.862-0.789,1.378c0.014,0.502,0.244,0.876,0.747,1.22c0.502,0.345,1.249,0.589,2.154,0.761h0.028
			c1.005,0.187,1.895,0.474,2.556,0.919c0.66,0.431,1.106,1.091,1.106,1.895c0,0.804-0.46,1.522-1.134,2.01
			c-0.675,0.488-1.58,0.79-2.584,0.79c-1.536-0.014-2.872-0.79-3.704-1.45C45.282,8.656,45.267,8.455,45.368,8.326z"/>
		<path id="XMLID_25_" class="st1" d="M55.093,0.544c0-0.201,0.158-0.359,0.345-0.359c0.201,0,0.359,0.158,0.359,0.359v5.815
			l6.073-6.073c0.144-0.129,0.373-0.129,0.488,0c0.144,0.129,0.144,0.359,0,0.502l-3.848,3.848l3.934,4.996
			c0.115,0.158,0.086,0.359-0.057,0.503c-0.072,0.057-0.144,0.072-0.23,0.072c-0.1,0-0.187-0.029-0.258-0.129l-3.891-4.939
			L55.797,7.35v2.513c0,0.187-0.158,0.345-0.359,0.345c-0.187,0-0.345-0.158-0.345-0.345V0.544z"/>
		<path id="XMLID_23_" class="st1" d="M69.583,4.205c-0.402-0.431-0.632-1.005-0.632-1.622c0-1.35,1.091-2.427,2.426-2.427
			c1.336,0,2.427,1.077,2.427,2.427c0,0.187-0.158,0.345-0.359,0.345c-0.187,0-0.345-0.158-0.345-0.345
			c0-0.962-0.775-1.723-1.723-1.723c-0.947,0-1.723,0.761-1.723,1.723c0,0.574,0.302,1.091,0.732,1.393
			c0.129,0.101,0.187,0.273,0.115,0.416c-0.014,0.072-0.072,0.129-0.129,0.172c-0.043,0.029-0.072,0.043-0.115,0.057
			c-0.833,0.445-1.393,1.292-1.393,2.297c0,1.421,1.163,2.584,2.584,2.584s2.584-1.163,2.584-2.584c0-0.201-0.029-0.402-0.072-0.589
			c-0.158-0.029-0.302-0.029-0.431-0.029c-0.919,0-1.378,0.215-1.608,0.445c-0.23,0.23-0.287,0.503-0.287,0.732
			c0,0.144,0.029,0.244,0.043,0.302c0.043,0.201-0.057,0.388-0.23,0.445c-0.043,0.014-0.072,0.014-0.1,0.014
			c-0.172,0-0.302-0.086-0.345-0.244c-0.014-0.014-0.072-0.23-0.072-0.517c0-0.345,0.086-0.833,0.503-1.22
			c0.402-0.402,1.062-0.661,2.096-0.661c0.158,0,0.345,0,0.503,0.029h0.086h0.043h0.101c0.158-0.029,0.302-0.086,0.402-0.158
			c0.115-0.115,0.201-0.23,0.201-0.531c0-0.101,0-0.23-0.029-0.373c-0.058-0.187,0.072-0.373,0.258-0.416
			c0.201-0.043,0.373,0.086,0.431,0.259c0.029,0.201,0.043,0.373,0.043,0.531c0.029,0.474-0.187,0.862-0.488,1.077
			c-0.144,0.1-0.273,0.172-0.416,0.23c0.043,0.215,0.072,0.445,0.072,0.675c0,1.809-1.479,3.288-3.288,3.288
			c-1.809,0-3.288-1.479-3.288-3.288C68.161,5.813,68.721,4.808,69.583,4.205z"/>
		<path id="XMLID_20_" class="st1" d="M39.335,20.052h-4.58l-0.89,2.369c-0.058,0.144-0.187,0.23-0.33,0.23
			c-0.029,0-0.086-0.014-0.129-0.014c-0.172-0.072-0.273-0.287-0.201-0.459l3.489-9.318c0.057-0.129,0.201-0.215,0.344-0.215
			c0.158,0,0.302,0.086,0.345,0.215l3.489,9.318c0.072,0.172-0.014,0.388-0.186,0.459c-0.058,0-0.086,0.014-0.13,0.014
			c-0.129,0-0.273-0.086-0.33-0.23L39.335,20.052z M35.013,19.349h4.063l-2.025-5.399L35.013,19.349z"/>
		<path id="XMLID_18_" class="st1" d="M43.447,14.079v8.227c0,0.187-0.158,0.345-0.344,0.345c-0.187,0-0.345-0.158-0.345-0.345
			v-9.218c-0.043-0.144,0-0.287,0.129-0.388c0.158-0.101,0.388-0.072,0.488,0.086l6.088,8.443v-8.184
			c0-0.187,0.158-0.345,0.345-0.345c0.201,0,0.359,0.158,0.359,0.345v9.261c0,0.187-0.158,0.345-0.359,0.345
			c-0.115,0-0.201-0.043-0.273-0.129c-0.014-0.014-0.043-0.029-0.058-0.058L43.447,14.079z"/>
		<path id="XMLID_15_" class="st1" d="M58.529,20.052h-4.58l-0.89,2.369c-0.058,0.144-0.187,0.23-0.33,0.23
			c-0.029,0-0.086-0.014-0.129-0.014c-0.172-0.072-0.273-0.287-0.201-0.459l3.489-9.318c0.057-0.129,0.201-0.215,0.344-0.215
			c0.158,0,0.302,0.086,0.345,0.215l3.489,9.318c0.072,0.172-0.014,0.388-0.186,0.459c-0.058,0-0.086,0.014-0.13,0.014
			c-0.129,0-0.273-0.086-0.33-0.23L58.529,20.052z M54.207,19.349h4.063l-2.025-5.399L54.207,19.349z"/>
		<path id="XMLID_13_" class="st1" d="M62.305,22.651h-0.029c-0.187,0-0.345-0.158-0.345-0.345v-9.362
			c0-0.187,0.158-0.345,0.345-0.345c0.201,0,0.359,0.158,0.359,0.345v9.002h4.81c0.201,0,0.359,0.158,0.359,0.359
			c0,0.187-0.158,0.345-0.359,0.345H62.305z"/>
		<path id="XMLID_11_" class="st1" d="M70.944,17.827l-3.374-4.609c-0.1-0.158-0.072-0.388,0.072-0.488
			c0.158-0.129,0.387-0.101,0.488,0.057l3.144,4.322l3.159-4.322c0.101-0.158,0.33-0.187,0.488-0.057
			c0.158,0.1,0.187,0.33,0.072,0.488l-3.36,4.58v4.509c0,0.187-0.144,0.345-0.345,0.345c-0.187,0-0.345-0.158-0.345-0.345V17.827z"
			/>
		<path id="XMLID_9_" class="st1" d="M79.707,13.304h-3.029c-0.187,0-0.345-0.158-0.345-0.359c0-0.187,0.158-0.345,0.345-0.345
			h6.748c0.187,0,0.345,0.158,0.345,0.345c0,0.201-0.158,0.359-0.345,0.359h-3.029v9.003c0,0.187-0.158,0.345-0.345,0.345
			s-0.345-0.158-0.345-0.345V13.304z"/>
		<path id="XMLID_7_" class="st1" d="M85.87,12.945c0-0.187,0.158-0.345,0.344-0.345c0.201,0,0.359,0.158,0.359,0.345v9.362
			c0,0.187-0.158,0.345-0.359,0.345c-0.186,0-0.344-0.158-0.344-0.345V12.945z"/>
		<path id="XMLID_5_" class="st1" d="M94.373,12.457c1.235,0,2.369,0.431,3.245,1.106c0.158,0.129,0.187,0.373,0.057,0.502
			c-0.115,0.172-0.344,0.187-0.488,0.072c-0.775-0.603-1.752-0.976-2.814-0.976c-2.513,0-4.523,1.967-4.523,4.422
			c0,2.398,2.01,4.365,4.523,4.365c1.062,0,2.039-0.345,2.786-0.976c0.172-0.115,0.402-0.086,0.503,0.086
			c0.144,0.129,0.115,0.388-0.043,0.502c-0.876,0.675-2.01,1.091-3.245,1.091c-2.886,0-5.226-2.269-5.226-5.068
			C89.146,14.725,91.487,12.471,94.373,12.457z"/>
		<path id="XMLID_3_" class="st1" d="M99.747,20.77c0.115-0.144,0.316-0.158,0.445-0.043c0.747,0.603,1.996,1.307,3.303,1.292
			c0.876,0,1.665-0.258,2.211-0.66c0.56-0.402,0.862-0.933,0.862-1.493c0-0.574-0.273-1.005-0.819-1.378
			c-0.545-0.359-1.35-0.632-2.326-0.818h-0.029c-0.933-0.172-1.751-0.431-2.369-0.847c-0.617-0.402-1.034-1.005-1.034-1.752
			c0-0.761,0.416-1.421,1.048-1.881c0.632-0.459,1.479-0.732,2.426-0.732c1.321,0,2.312,0.646,3.101,1.163
			c0.144,0.101,0.186,0.287,0.086,0.445c-0.086,0.144-0.287,0.187-0.431,0.086c-0.79-0.517-1.651-1.062-2.757-1.062
			c-0.819,0-1.551,0.244-2.053,0.603c-0.502,0.373-0.789,0.862-0.789,1.378c0.014,0.502,0.244,0.876,0.747,1.22
			c0.502,0.345,1.249,0.589,2.154,0.761h0.028c1.005,0.187,1.895,0.474,2.556,0.919c0.66,0.431,1.106,1.091,1.106,1.895
			c0,0.804-0.46,1.522-1.134,2.01c-0.675,0.488-1.58,0.79-2.584,0.79c-1.536-0.014-2.872-0.79-3.704-1.45
			C99.661,21.1,99.646,20.899,99.747,20.77z"/>
	</g>
</g>
</svg>